<svg id="Filled" height="512" viewBox="0 0 512 512" width="512" xmlns="http://www.w3.org/2000/svg"><path d="m488 480h-257l25-272h208z" fill="#2d85cc"/><rect fill="#e9eef2" height="448" rx="32" width="256" x="24" y="32"/><circle cx="72" cy="328" fill="#6a7073" r="16"/><circle cx="184" cy="328" fill="#6a7073" r="16"/><path d="m56 200h160l-16 80h-128z" fill="#eb423f"/><path d="m280 64h-256a32 32 0 0 1 32-32h192a32 32 0 0 1 32 32z" fill="#9aa3a8"/><path d="m280 448a32 32 0 0 1 -32 32h-192a32 32 0 0 1 -32-32z" fill="#9aa3a8"/><circle cx="136" cy="192" fill="#ffb632" r="48"/><path d="m493.9 485.4a8 8 0 0 0 2.069-6.1l-24-272a8 8 0 0 0 -7.969-7.3h-40v-24a56 56 0 0 0 -112 0v24h-24v-136a40.045 40.045 0 0 0 -40-40h-192a40.045 40.045 0 0 0 -40 40v384a40.045 40.045 0 0 0 40 40h432a8 8 0 0 0 5.9-2.6zm-437.9-445.4h192a24.039 24.039 0 0 1 22.624 16h-237.248a24.039 24.039 0 0 1 22.624-16zm192 432h-192a24.039 24.039 0 0 1 -22.624-16h237.248a24.039 24.039 0 0 1 -22.624 16zm24-32h-240v-368h240zm56-264a40 40 0 0 1 80 0v24h-80zm-48.022 296a39.788 39.788 0 0 0 8.022-24v-232h24v32a8 8 0 0 0 16 0v-32h80v32a8 8 0 0 0 16 0v-32h32.675l22.588 256z"/><circle cx="320" cy="280" r="8"/><circle cx="416" cy="280" r="8"/><path d="m200 304h-128a24 24 0 0 0 0 48h144a8 8 0 0 0 0-16h-9.376a23.923 23.923 0 0 0 -.321-16.846 24 24 0 0 0 3.074-45.245l14.37-71.85 6.019-26.059h18.234a8 8 0 0 0 0-16h-24a8 8 0 0 0 -7.59 5.47l-6.176 26.53h-18.234a56 56 0 0 0 -112 0h-24a8 8 0 0 0 -7.845 9.569l16 80a8 8 0 0 0 7.845 6.431h128a8 8 0 0 1 0 16zm-128 32a8 8 0 1 1 8-8 8.009 8.009 0 0 1 -8 8zm89.376 0h-66.752a23.944 23.944 0 0 0 0-16h66.752a23.944 23.944 0 0 0 0 16zm22.624 0a8 8 0 1 1 8-8 8.009 8.009 0 0 1 -8 8zm-113.441-104-4.8-24h16.582a55.824 55.824 0 0 0 8.065 16.454l.755 7.546zm8 40-4.8-24h19l2.4 24zm49.441 0h-16.76l-2.4-24h19.16zm32.76 0h-16.76v-24h19.16zm-24.76-40a40 40 0 1 1 40-40 40.045 40.045 0 0 1 -40 40zm57.441 40h-16.6l2.4-24h19zm8-40h-20.6l.755-7.546a55.824 55.824 0 0 0 8.063-16.454h16.582z"/><path d="m146.343 178.343-18.343 18.344-2.343-2.344a8 8 0 0 0 -11.314 11.314l8 8a8 8 0 0 0 11.314 0l24-24a8 8 0 0 0 -11.314-11.314z"/><circle cx="248" cy="344" r="8"/></svg>